<svg width="20" height="20" viewBox="0 0 20 20" fill="none" xmlns="http://www.w3.org/2000/svg">
<path d="M0.00390625 9.997C0.00390625 4.48 4.48391 0 10.0019 0C15.5199 0 19.9999 4.48 19.9999 9.997C19.9999 15.515 15.5199 19.995 10.0019 19.995C4.48391 19.995 0.00390625 15.515 0.00390625 9.997ZM8.21491 5.154C8.07391 5.046 7.91491 4.997 7.75891 4.997C7.36991 4.997 7.00391 5.303 7.00391 5.746V14.247C7.00391 14.692 7.37091 14.997 7.75891 14.997C7.91591 14.997 8.07491 14.947 8.21591 14.838C9.76991 13.635 12.4149 11.586 13.7139 10.58C13.8979 10.438 14.0039 10.22 14.0039 9.988C14.0039 9.758 13.8969 9.539 13.7129 9.397L8.21491 5.154Z" fill="black"/>
</svg>
