<svg width="20" height="21" viewBox="0 0 20 21" fill="none" xmlns="http://www.w3.org/2000/svg">
<path d="M19.9901 10.5019C19.9901 4.98488 15.5101 0.504883 9.99212 0.504883C4.47512 0.504883 -0.00488281 4.98488 -0.00488281 10.5019C-0.00488281 16.0199 4.47512 20.4999 9.99212 20.4999C15.5101 20.4999 19.9901 16.0199 19.9901 10.5019ZM11.7791 5.65888C11.9201 5.55088 12.0791 5.50188 12.2351 5.50188C12.6241 5.50188 12.9901 5.80788 12.9901 6.25088V14.7519C12.9901 15.1969 12.6231 15.5019 12.2351 15.5019C12.0781 15.5019 11.9191 15.4519 11.7781 15.3429C10.2241 14.1399 7.57912 12.0909 6.28012 11.0849C6.09612 10.9429 5.99012 10.7249 5.99012 10.4929C5.99012 10.2629 6.09712 10.0439 6.28112 9.90188L11.7791 5.65888Z" fill="black"/>
</svg>
